<?xml version="1.0" standalone="no"?>
<!DOCTYPE svg PUBLIC "-//W3C//DTD SVG 20010904//EN"
 "http://www.w3.org/TR/2001/REC-SVG-20010904/DTD/svg10.dtd">
<svg version="1.0" xmlns="http://www.w3.org/2000/svg"
 width="225.000000pt" height="225.000000pt" viewBox="0 0 225.000000 225.000000"
 preserveAspectRatio="xMidYMid meet">

<g transform="translate(0.000000,225.000000) scale(0.100000,-0.100000)"
fill="#000000" stroke="none">
<path d="M1035 1614 c-115 -36 -213 -133 -250 -250 -32 -102 -3 -284 45 -284
18 0 19 2 3 43 -10 25 -16 73 -16 122 -1 95 27 167 92 237 153 167 405 149
549 -37 l23 -30 -18 33 c-28 52 -107 121 -171 149 -73 32 -185 40 -257 17z"/>
<path d="M1055 1555 c-58 -22 -68 -38 -12 -19 66 22 177 16 238 -14 60 -29
125 -95 152 -154 14 -31 28 -48 39 -48 24 0 23 12 -7 71 -33 64 -88 119 -151
150 -61 30 -196 37 -259 14z"/>
<path d="M939 1483 c-13 -16 -12 -17 4 -4 9 7 17 15 17 17 0 8 -8 3 -21 -13z"/>
<path d="M1148 1456 c-15 -11 -15 -13 1 -23 12 -8 21 -7 33 1 15 11 15 13 -1
23 -12 8 -21 7 -33 -1z"/>
<path d="M1123 1329 c37 -35 46 -39 79 -34 21 3 79 8 130 12 l93 7 -85 28
c-69 22 -102 27 -172 27 l-88 -2 43 -38z"/>
<path d="M1015 1348 c-39 -11 -69 -34 -60 -47 3 -7 42 -11 92 -11 l87 0 -28
29 c-33 35 -51 40 -91 29z"/>
<path d="M1533 1324 c-9 -9 -9 -15 1 -23 10 -8 16 -8 24 1 15 19 -9 40 -25 22z"/>
<path d="M859 1297 c-14 -11 -14 -14 -2 -26 13 -11 17 -11 29 1 21 21 -3 42
-27 25z"/>
<path d="M1155 1236 c-22 -53 -18 -78 5 -28 16 35 24 43 42 40 34 -5 56 -74
39 -117 -19 -44 -57 -43 -76 2 -9 19 -14 25 -15 14 0 -10 -3 -16 -7 -14 -5 3
-53 10 -108 17 -55 7 -105 16 -111 21 -7 6 -10 1 -10 -14 1 -15 -6 -23 -21
-25 -12 -2 -24 -10 -27 -18 -4 -11 6 -14 47 -14 29 0 154 -5 279 -10 314 -14
430 9 413 80 -11 44 -27 52 -89 45 -46 -6 -60 -12 -76 -35 -11 -16 -20 -30
-20 -32 0 -1 33 -2 72 -1 122 4 32 -16 -109 -23 l-121 -7 0 47 c1 56 -26 99
-66 104 -22 3 -29 -2 -41 -32z"/>
<path d="M1329 1241 c16 -15 37 -21 69 -21 54 0 51 7 -9 19 -24 5 -53 12 -64
16 -17 6 -17 4 4 -14z"/>
<path d="M1584 1245 c-17 -13 -17 -14 -2 -15 9 0 20 5 23 11 11 17 0 20 -21 4z"/>
<path d="M834 1228 c-4 -6 -3 -8 3 -5 16 10 34 -17 27 -39 -5 -17 -5 -18 6 -2
8 13 8 23 0 38 -12 22 -25 26 -36 8z"/>
<path d="M1190 1215 c0 -8 2 -15 4 -15 2 0 6 7 10 15 3 8 1 15 -4 15 -6 0 -10
-7 -10 -15z"/>
<path d="M1217 1195 c-4 -8 -2 -17 3 -20 6 -4 10 3 10 14 0 25 -6 27 -13 6z"/>
<path d="M1056 1191 c-3 -5 0 -14 8 -20 10 -9 15 -8 19 3 9 22 -15 37 -27 17z"/>
<path d="M1171 1184 c0 -11 3 -14 6 -6 3 7 2 16 -1 19 -3 4 -6 -2 -5 -13z"/>
<path d="M1180 1135 c0 -8 4 -15 10 -15 5 0 7 7 4 15 -4 8 -8 15 -10 15 -2 0
-4 -7 -4 -15z"/>
<path d="M1210 1134 c0 -8 5 -12 10 -9 6 3 10 10 10 16 0 5 -4 9 -10 9 -5 0
-10 -7 -10 -16z"/>
<path d="M1582 1050 c-34 -28 -121 -50 -202 -50 -40 0 -140 12 -224 26 -180
32 -381 37 -456 11 l-45 -16 90 0 c89 -1 167 -13 320 -50 222 -53 314 -54 416
-4 35 18 80 48 98 67 38 39 39 46 3 16z"/>
<path d="M924 955 c32 -25 127 -65 154 -65 10 1 -3 8 -28 17 -25 8 -64 28 -87
44 -50 35 -80 38 -39 4z"/>
<path d="M1113 883 c9 -2 23 -2 30 0 6 3 -1 5 -18 5 -16 0 -22 -2 -12 -5z"/>
<path d="M526 805 c-3 -9 -6 -34 -6 -55 0 -45 18 -60 74 -60 82 0 90 28 9 32
l-58 3 0 35 0 35 58 0 c76 0 68 19 -10 23 -48 2 -62 0 -67 -13z"/>
<path d="M711 763 c-17 -31 -31 -60 -31 -65 0 -13 12 -9 25 9 17 23 84 22 101
-1 7 -10 17 -16 23 -15 13 5 -58 129 -74 129 -7 0 -27 -26 -44 -57z m53 -21
c-34 -5 -37 0 -23 32 l12 26 19 -27 18 -28 -26 -3z"/>
<path d="M860 755 c0 -37 4 -65 10 -65 6 0 10 11 10 25 0 33 23 33 67 -1 18
-14 39 -24 46 -21 7 2 3 9 -11 16 -27 15 -28 27 -2 34 20 5 26 30 14 61 -5 12
-21 16 -70 16 l-64 0 0 -65z m115 20 c0 -17 -8 -20 -47 -23 -46 -3 -48 -2 -48
23 0 25 2 26 48 23 39 -3 47 -6 47 -23z"/>
<path d="M1094 758 c26 -69 41 -82 55 -46 5 13 15 37 21 53 l12 30 18 -50 c9
-27 23 -50 30 -50 7 0 23 28 36 63 18 47 21 62 10 62 -7 0 -19 -20 -26 -45 -7
-25 -16 -45 -20 -45 -4 0 -14 20 -21 45 -17 57 -37 56 -57 -2 -7 -24 -17 -43
-21 -43 -4 0 -12 20 -19 45 -7 27 -18 45 -27 45 -11 0 -10 -12 9 -62z"/>
<path d="M1300 759 c-30 -58 -34 -95 -4 -55 18 25 82 26 100 2 7 -10 17 -16
23 -15 14 5 -57 129 -73 129 -7 0 -28 -27 -46 -61z m65 11 l16 -30 -31 0 c-16
0 -30 2 -30 5 0 7 23 55 26 55 2 0 10 -13 19 -30z"/>
<path d="M1450 786 c0 -35 0 -35 52 -38 74 -4 77 -28 4 -28 -43 0 -56 -3 -56
-15 0 -11 12 -15 46 -15 54 0 84 14 84 38 0 29 -21 42 -67 42 -32 0 -43 4 -43
15 0 11 12 15 50 15 28 0 50 5 50 10 0 6 -27 10 -60 10 l-60 0 0 -34z"/>
<path d="M1600 755 c0 -37 4 -65 10 -65 6 0 10 14 10 30 0 29 2 30 45 30 43 0
45 -1 45 -30 0 -16 5 -30 10 -30 6 0 10 28 10 65 0 37 -4 65 -10 65 -5 0 -10
-11 -10 -25 0 -23 -4 -25 -45 -25 -41 0 -45 2 -45 25 0 14 -4 25 -10 25 -6 0
-10 -28 -10 -65z"/>
<path d="M941 634 c0 -11 3 -14 6 -6 3 7 2 16 -1 19 -3 4 -6 -2 -5 -13z"/>
<path d="M970 635 c0 -6 7 -12 15 -12 8 0 15 6 15 12 0 6 -7 12 -15 12 -8 0
-15 -6 -15 -12z"/>
<path d="M1021 634 c0 -11 3 -14 6 -6 3 7 2 16 -1 19 -3 4 -6 -2 -5 -13z"/>
<path d="M1095 641 c-3 -5 0 -13 6 -17 8 -5 9 -3 4 6 -6 10 -4 12 9 7 10 -4
15 -3 11 3 -8 13 -22 13 -30 1z"/>
<path d="M1150 635 c0 -8 4 -15 10 -15 5 0 7 7 4 15 -4 8 -8 15 -10 15 -2 0
-4 -7 -4 -15z"/>
<path d="M1331 634 c0 -11 3 -14 6 -6 3 7 2 16 -1 19 -3 4 -6 -2 -5 -13z"/>
</g>
</svg>
